<svg width="17.01" height="19.44" viewBox="0 0 17.01 19.44" fill="none" xmlns="http://www.w3.org/2000/svg">
<path id="Vector" d="M16.5544 18.225H15.795V0.91125C15.795 0.407974 15.387 0 14.8838 0H2.12625C1.62297 0 1.215 0.407974 1.215 0.91125V18.225H0.455625C0.204006 18.225 0 18.429 0 18.6806V19.44H17.01V18.6806C17.01 18.429 16.806 18.225 16.5544 18.225ZM4.86 2.88563C4.86 2.63401 5.06401 2.43 5.31563 2.43H6.83438C7.08599 2.43 7.29 2.63401 7.29 2.88563V4.40438C7.29 4.65599 7.08599 4.86 6.83438 4.86H5.31563C5.06401 4.86 4.86 4.65599 4.86 4.40438V2.88563ZM4.86 6.53063C4.86 6.27901 5.06401 6.075 5.31563 6.075H6.83438C7.08599 6.075 7.29 6.27901 7.29 6.53063V8.04938C7.29 8.30099 7.08599 8.505 6.83438 8.505H5.31563C5.06401 8.505 4.86 8.30099 4.86 8.04938V6.53063ZM6.83438 12.15H5.31563C5.06401 12.15 4.86 11.946 4.86 11.6944V10.1756C4.86 9.92401 5.06401 9.72 5.31563 9.72H6.83438C7.08599 9.72 7.29 9.92401 7.29 10.1756V11.6944C7.29 11.946 7.08599 12.15 6.83438 12.15ZM9.72 18.225H7.29V15.0356C7.29 14.784 7.49401 14.58 7.74563 14.58H9.26438C9.51599 14.58 9.72 14.784 9.72 15.0356V18.225ZM12.15 11.6944C12.15 11.946 11.946 12.15 11.6944 12.15H10.1756C9.92401 12.15 9.72 11.946 9.72 11.6944V10.1756C9.72 9.92401 9.92401 9.72 10.1756 9.72H11.6944C11.946 9.72 12.15 9.92401 12.15 10.1756V11.6944ZM12.15 8.04938C12.15 8.30099 11.946 8.505 11.6944 8.505H10.1756C9.92401 8.505 9.72 8.30099 9.72 8.04938V6.53063C9.72 6.27901 9.92401 6.075 10.1756 6.075H11.6944C11.946 6.075 12.15 6.27901 12.15 6.53063V8.04938ZM12.15 4.40438C12.15 4.65599 11.946 4.86 11.6944 4.86H10.1756C9.92401 4.86 9.72 4.65599 9.72 4.40438V2.88563C9.72 2.63401 9.92401 2.43 10.1756 2.43H11.6944C11.946 2.43 12.15 2.63401 12.15 2.88563V4.40438Z" fill="currentColor"/>
</svg>
